<svg width="89" height="91" viewBox="0 0 89 91" fill="none" xmlns="http://www.w3.org/2000/svg">
<path d="M88.0065 31.4332C87.3765 26.518 83.607 21.4744 78.147 18.2623C73.1595 15.3763 68.277 12.4556 63.5625 9.63555C58.638 6.68711 53.892 3.85314 49.405 1.27586C46.486 -0.403012 43.1365 -0.423824 40.214 1.20649C35.2825 3.96068 30.05 7.04093 24.604 10.2391C20.1415 12.8684 15.5355 15.581 10.8105 18.2797C5.30849 21.4709 1.5005 26.5353 0.870496 31.5025C-0.806004 44.8815 -0.0605042 58.4513 3.1035 71.8927C4.8605 78.7539 12.158 86.0868 19.1055 87.9287C27.5125 89.9822 35.9755 91.009 44.442 91.009C52.9085 91.009 61.3715 89.9822 69.7785 87.9287C69.7995 87.9252 69.824 87.9183 69.845 87.9114C76.7295 86.0868 84.027 78.7504 85.798 71.8268C88.948 58.4305 89.6935 44.8434 88.0065 31.4332ZM58.8445 79.0244C58.47 81.3867 56.622 83.3014 54.221 83.5407C47.725 84.1929 41.222 84.1963 34.7365 83.5546C32.3355 83.3153 30.484 81.4005 30.1095 79.0383C28.972 71.8615 29.2695 64.6846 31.002 57.5043C31.541 55.2808 33.2665 53.5014 35.4365 52.7174C41.4635 50.539 47.487 50.539 53.514 52.7174C55.684 53.5014 57.4095 55.2808 57.9485 57.5043C59.6845 64.6777 59.982 71.8511 58.8445 79.0244Z" fill="#9D99B2"/>
</svg>
